<svg width="14" height="16" viewBox="0 0 14 16" fill="none" xmlns="http://www.w3.org/2000/svg">
<path d="M1.70092 9.63908C1.77641 10.3573 1.99294 11.0224 2.35052 11.6342C2.7081 12.246 3.18164 12.7653 3.77115 13.1921C3.75008 13.1245 3.73664 13.0631 3.73083 13.0078C3.72503 12.9526 3.71849 12.8904 3.71123 12.8214C3.66478 12.3794 3.7041 11.9563 3.8292 11.5521C3.95431 11.1479 4.15901 10.7703 4.44332 10.4192L6.54286 7.87328L9.12586 9.92704C9.47694 10.2113 9.75569 10.5382 9.96209 10.9075C10.1685 11.2768 10.2949 11.6825 10.3414 12.1245C10.3486 12.1936 10.3552 12.2557 10.361 12.311C10.3668 12.3662 10.3664 12.4291 10.3599 12.4996C10.8477 11.9596 11.203 11.3532 11.4255 10.6804C11.6481 10.0076 11.7216 9.31206 11.6461 8.5938C11.5735 7.90316 11.3772 7.26393 11.057 6.67612C10.7369 6.08831 10.3097 5.57808 9.77544 5.14545C9.51806 5.35405 9.24214 5.51921 8.9477 5.64093C8.65325 5.76265 8.34718 5.84021 8.02949 5.8736C7.17309 5.96361 6.40089 5.75848 5.71289 5.25821C5.02488 4.75795 4.58898 4.09851 4.40518 3.2799C3.91439 3.79234 3.48758 4.31552 3.12473 4.84943C2.76188 5.38333 2.46537 5.91725 2.2352 6.45118C2.00503 6.98511 1.84501 7.52214 1.75514 8.06227C1.66527 8.6024 1.6472 9.128 1.70092 9.63908ZM6.78676 10.1938L5.72772 11.4782C5.59175 11.6461 5.49249 11.8311 5.42993 12.0332C5.36738 12.2353 5.34699 12.44 5.36877 12.6472C5.41523 13.0892 5.61745 13.452 5.97544 13.7355C6.33344 14.0191 6.74034 14.137 7.19616 14.089C7.65199 14.0411 8.0255 13.8413 8.31671 13.4895C8.60792 13.1377 8.7303 12.7407 8.68384 12.2987C8.66061 12.0777 8.59776 11.8783 8.49529 11.7006C8.39281 11.5228 8.25762 11.366 8.08971 11.23L6.78676 10.1938ZM5.71535 -1.49541e-05L6.0028 2.73492C6.05216 3.20456 6.25584 3.58116 6.61383 3.86474C6.97182 4.14832 7.38564 4.26543 7.85527 4.21607C8.1039 4.18993 8.32982 4.11382 8.53303 3.98772C8.73624 3.86162 8.90984 3.68627 9.05381 3.46165L9.37885 2.96663C10.462 3.43934 11.355 4.16246 12.0578 5.13599C12.7606 6.10953 13.1759 7.20406 13.3037 8.41958C13.4982 10.2705 13.0207 11.9058 11.8711 13.3254C10.7215 14.745 9.22129 15.552 7.37038 15.7466C5.51946 15.9411 3.8842 15.4636 2.4646 14.314C1.04499 13.1645 0.237917 11.6642 0.0433785 9.81329C-0.143901 8.03144 0.27566 6.27658 1.30206 4.54872C2.32846 2.82085 3.79956 1.30461 5.71535 -1.49541e-05Z" fill="white"/>
</svg>
