<svg width="121" height="130" viewBox="0 0 121 130" fill="none" xmlns="http://www.w3.org/2000/svg">
<g filter="url(#filter0_d_76_1371)">
<path d="M15 15H50V50H15V15ZM20 20V45V20ZM65 15H100V50H65V15ZM70 20V45V20ZM15 65H50V100H15V65ZM20 70V95V70ZM80 65H85V80H100V85H85V100H80V85H65V80H80V65ZM70 20V45H95V20H70ZM20 20V45H45V20H20ZM20 70V95H45V70H20Z" fill="#2559F4"/>
</g>
<rect x="68.1001" y="77.975" width="39.9" height="30.025" rx="12" fill="#101422"/>
<rect x="68.6001" y="78.475" width="38.9" height="29.025" rx="11.5" stroke="#2559F4" stroke-opacity="0.3"/>
<g filter="url(#filter1_dd_76_1371)">
<rect x="68.1001" y="77.975" width="40.02" height="30" rx="12" fill="white" fill-opacity="0.01" shape-rendering="crispEdges"/>
</g>
<path d="M82.7501 99L77.1001 93.35L78.5251 91.95L82.7751 96.2L84.1751 97.6L82.7501 99ZM88.4001 99L82.7501 93.35L84.1501 91.925L88.4001 96.175L97.6001 86.975L99.0001 88.4L88.4001 99ZM88.4001 93.35L86.9751 91.95L91.9251 87L93.3501 88.4L88.4001 93.35Z" fill="#2559F4"/>
<defs>
<filter id="filter0_d_76_1371" x="0" y="0" width="115" height="115" filterUnits="userSpaceOnUse" color-interpolation-filters="sRGB">
<feFlood flood-opacity="0" result="BackgroundImageFix"/>
<feColorMatrix in="SourceAlpha" type="matrix" values="0 0 0 0 0 0 0 0 0 0 0 0 0 0 0 0 0 0 127 0" result="hardAlpha"/>
<feOffset/>
<feGaussianBlur stdDeviation="7.5"/>
<feComposite in2="hardAlpha" operator="out"/>
<feColorMatrix type="matrix" values="0 0 0 0 0.145098 0 0 0 0 0.34902 0 0 0 0 0.956863 0 0 0 0.4 0"/>
<feBlend mode="normal" in2="BackgroundImageFix" result="effect1_dropShadow_76_1371"/>
<feBlend mode="normal" in="SourceGraphic" in2="effect1_dropShadow_76_1371" result="shape"/>
</filter>
<filter id="filter1_dd_76_1371" x="56.1001" y="75.975" width="64.02" height="54" filterUnits="userSpaceOnUse" color-interpolation-filters="sRGB">
<feFlood flood-opacity="0" result="BackgroundImageFix"/>
<feColorMatrix in="SourceAlpha" type="matrix" values="0 0 0 0 0 0 0 0 0 0 0 0 0 0 0 0 0 0 127 0" result="hardAlpha"/>
<feMorphology radius="4" operator="erode" in="SourceAlpha" result="effect1_dropShadow_76_1371"/>
<feOffset dy="4"/>
<feGaussianBlur stdDeviation="3"/>
<feComposite in2="hardAlpha" operator="out"/>
<feColorMatrix type="matrix" values="0 0 0 0 0 0 0 0 0 0 0 0 0 0 0 0 0 0 0.1 0"/>
<feBlend mode="normal" in2="BackgroundImageFix" result="effect1_dropShadow_76_1371"/>
<feColorMatrix in="SourceAlpha" type="matrix" values="0 0 0 0 0 0 0 0 0 0 0 0 0 0 0 0 0 0 127 0" result="hardAlpha"/>
<feMorphology radius="3" operator="erode" in="SourceAlpha" result="effect2_dropShadow_76_1371"/>
<feOffset dy="10"/>
<feGaussianBlur stdDeviation="7.5"/>
<feComposite in2="hardAlpha" operator="out"/>
<feColorMatrix type="matrix" values="0 0 0 0 0 0 0 0 0 0 0 0 0 0 0 0 0 0 0.1 0"/>
<feBlend mode="normal" in2="effect1_dropShadow_76_1371" result="effect2_dropShadow_76_1371"/>
<feBlend mode="normal" in="SourceGraphic" in2="effect2_dropShadow_76_1371" result="shape"/>
</filter>
</defs>
</svg>
