<svg width="381" height="392" viewBox="0 0 381 392" fill="none" xmlns="http://www.w3.org/2000/svg">
<g filter="url(#filter0_d_76_398)">
<rect x="67" y="66" width="256" height="256" rx="128" fill="url(#paint0_linear_76_398)" shape-rendering="crispEdges"/>
<g filter="url(#filter1_dd_76_398)">
<path d="M170 239V229H190V213.5C185.917 212.583 182.271 210.854 179.062 208.312C175.854 205.771 173.5 202.583 172 198.75C165.75 198 160.521 195.271 156.312 190.562C152.104 185.854 150 180.333 150 174V169C150 166.25 150.979 163.896 152.938 161.938C154.896 159.979 157.25 159 160 159H170V149H220V159H230C232.75 159 235.104 159.979 237.062 161.938C239.021 163.896 240 166.25 240 169V174C240 180.333 237.896 185.854 233.688 190.562C229.479 195.271 224.25 198 218 198.75C216.5 202.583 214.146 205.771 210.938 208.312C207.729 210.854 204.083 212.583 200 213.5V229H220V239H170ZM170 188V169H160V174C160 177.167 160.917 180.021 162.75 182.562C164.583 185.104 167 186.917 170 188ZM220 188C223 186.917 225.417 185.104 227.25 182.562C229.083 180.021 230 177.167 230 174V169H220V188Z" fill="white"/>
</g>
<path d="M241 85C239.175 84.775 237.363 84.2812 235.563 83.5187C233.762 82.7562 232.156 81.6625 230.744 80.2375C229.331 78.8125 228.187 77.0125 227.312 74.8375C226.438 72.6625 226 70.05 226 67V65.5H227.5C228.775 65.5 230.087 65.6625 231.438 65.9875C232.788 66.3125 234.05 66.8 235.225 67.45C235.525 65.3 236.206 63.0938 237.269 60.8313C238.331 58.5688 239.575 56.625 241 55C242.425 56.625 243.669 58.5688 244.731 60.8313C245.794 63.0938 246.475 65.3 246.775 67.45C247.95 66.8 249.213 66.3125 250.562 65.9875C251.912 65.6625 253.225 65.5 254.5 65.5H256V67C256 70.05 255.563 72.6625 254.687 74.8375C253.812 77.0125 252.669 78.8125 251.256 80.2375C249.844 81.6625 248.244 82.7562 246.456 83.5187C244.669 84.2812 242.85 84.775 241 85ZM240.925 81.925C240.65 77.775 239.419 74.6375 237.231 72.5125C235.044 70.3875 232.325 69.075 229.075 68.575C229.35 72.85 230.619 76.0375 232.881 78.1375C235.144 80.2375 237.825 81.5 240.925 81.925ZM241 72.4C241.375 71.85 241.831 71.2812 242.369 70.6938C242.906 70.1063 243.425 69.6 243.925 69.175C243.875 67.75 243.594 66.2625 243.081 64.7125C242.569 63.1625 241.875 61.65 241 60.175C240.125 61.65 239.431 63.1625 238.919 64.7125C238.406 66.2625 238.125 67.75 238.075 69.175C238.575 69.6 239.1 70.1063 239.65 70.6938C240.2 71.2812 240.65 71.85 241 72.4ZM243.925 81.25C244.85 80.95 245.813 80.5125 246.812 79.9375C247.812 79.3625 248.744 78.5812 249.606 77.5938C250.469 76.6063 251.206 75.375 251.819 73.9C252.431 72.425 252.8 70.65 252.925 68.575C250.575 68.925 248.513 69.7063 246.738 70.9187C244.963 72.1313 243.6 73.675 242.65 75.55C242.95 76.35 243.206 77.225 243.419 78.175C243.631 79.125 243.8 80.15 243.925 81.25ZM263.088 88V62.3875H282.925C285.25 62.3875 287.319 63 289.131 64.225C290.944 65.45 291.85 67.35 291.85 69.925C291.85 72.575 290.963 74.5062 289.188 75.7187C287.413 76.9312 285.325 77.5375 282.925 77.5375H266.462V88H263.088ZM266.462 74.8H282.925C284.475 74.8 285.781 74.4 286.844 73.6C287.906 72.8 288.437 71.575 288.437 69.925C288.437 68.275 287.9 67.0688 286.825 66.3063C285.75 65.5438 284.45 65.1625 282.925 65.1625H266.462V74.8ZM289.262 88L280.788 77.05L284.388 76.4125L293.275 88H289.262ZM299.088 88V62.3875H302.462V78.025L324.437 62.3875H329.65L302.462 81.175V88H299.088ZM325.75 88L309.1 74.35L311.8 72.6625L331 88H325.75Z" fill="#FEF08A"/>
<path d="M51.5625 284.781L55.5 282.406L59.4375 284.812L58.4062 280.312L61.875 277.312L57.3125 276.906L55.5 272.656L53.6875 276.875L49.125 277.281L52.5938 280.312L51.5625 284.781ZM47.7812 290L49.8125 281.219L43 275.312L52 274.531L55.5 266.25L59 274.531L68 275.312L61.1875 281.219L63.2188 290L55.5 285.344L47.7812 290Z" fill="#FEF08A"/>
<path d="M70 119L68.75 116.25L66 115L68.75 113.75L70 111L71.25 113.75L74 115L71.25 116.25L70 119ZM70 133L68.75 130.25L66 129L68.75 127.75L70 125L71.25 127.75L74 129L71.25 130.25L70 133ZM60 130L57.5 124.5L52 122L57.5 119.5L60 114L62.5 119.5L68 122L62.5 124.5L60 130ZM60 125.15L61 123L63.15 122L61 121L60 118.85L59 121L56.85 122L59 123L60 125.15Z" fill="white" fill-opacity="0.8"/>
</g>
<rect x="198.35" y="295.016" width="121.5" height="56.999" rx="11.5" transform="rotate(-5.99997 198.35 295.016)" fill="#1E293B"/>
<rect x="198.35" y="295.016" width="121.5" height="56.999" rx="11.5" transform="rotate(-5.99997 198.35 295.016)" stroke="#334155"/>
<g filter="url(#filter2_dd_76_398)">
<rect x="197.8" y="294.571" width="122.5" height="58" rx="12" transform="rotate(-5.99997 197.8 294.571)" fill="white" fill-opacity="0.01" shape-rendering="crispEdges"/>
</g>
<g filter="url(#filter3_i_76_398)">
<rect x="207.692" y="302.581" width="40.0001" height="39.999" rx="19.9995" transform="rotate(-5.99997 207.692 302.581)" fill="#F97316"/>
<path d="M224.831 322.146C224.906 322.864 225.123 323.529 225.48 324.141C225.838 324.753 226.311 325.272 226.901 325.699C226.88 325.632 226.866 325.57 226.861 325.515C226.855 325.46 226.848 325.397 226.841 325.328C226.795 324.886 226.834 324.463 226.959 324.059C227.084 323.655 227.289 323.277 227.573 322.926L229.673 320.38L232.256 322.434C232.607 322.718 232.885 323.045 233.092 323.415C233.298 323.784 233.425 324.19 233.471 324.632C233.478 324.701 233.485 324.763 233.491 324.818C233.497 324.873 233.496 324.936 233.49 325.007C233.978 324.467 234.333 323.86 234.555 323.187C234.778 322.515 234.851 321.819 234.776 321.101C234.703 320.41 234.507 319.771 234.187 319.183C233.867 318.595 233.439 318.085 232.905 317.652C232.648 317.861 232.372 318.026 232.077 318.148C231.783 318.27 231.477 318.347 231.159 318.381C230.303 318.471 229.531 318.266 228.843 317.765C228.155 317.265 227.719 316.606 227.535 315.787C227.044 316.299 226.617 316.823 226.254 317.356C225.892 317.89 225.595 318.424 225.365 318.958C225.135 319.492 224.975 320.029 224.885 320.569C224.795 321.109 224.777 321.635 224.831 322.146ZM229.917 322.701L228.857 323.985C228.722 324.153 228.622 324.338 228.56 324.54C228.497 324.742 228.477 324.947 228.499 325.154C228.545 325.596 228.747 325.959 229.105 326.243C229.463 326.526 229.87 326.644 230.326 326.596C230.782 326.548 231.155 326.348 231.446 325.996C231.738 325.645 231.86 325.248 231.814 324.806C231.79 324.585 231.728 324.385 231.625 324.208C231.523 324.03 231.387 323.873 231.219 323.737L229.917 322.701ZM228.845 312.507L229.133 315.242C229.182 315.712 229.386 316.088 229.744 316.372C230.102 316.655 230.515 316.772 230.985 316.723C231.234 316.697 231.46 316.621 231.663 316.495C231.866 316.369 232.04 316.193 232.184 315.969L232.509 315.474C233.592 315.946 234.485 316.669 235.188 317.643C235.89 318.617 236.306 319.711 236.433 320.927C236.628 322.778 236.15 324.413 235.001 325.832C233.851 327.252 232.351 328.059 230.5 328.254C228.649 328.448 227.014 327.971 225.594 326.821C224.175 325.671 223.368 324.171 223.173 322.32C222.986 320.538 223.405 318.784 224.432 317.056C225.458 315.328 226.929 313.812 228.845 312.507Z" fill="white"/>
</g>
<path d="M264.216 313.371C263.679 313.428 263.194 313.381 262.763 313.232C262.332 313.083 261.981 312.842 261.712 312.508C261.442 312.175 261.281 311.756 261.228 311.252L261.198 310.973L262.491 310.838L262.521 311.116C262.564 311.534 262.727 311.833 263.007 312.015C263.288 312.197 263.65 312.264 264.094 312.218C264.545 312.17 264.872 312.045 265.076 311.843C265.279 311.641 265.366 311.4 265.337 311.122C265.316 310.929 265.245 310.779 265.123 310.672C265.001 310.564 264.832 310.483 264.615 310.428C264.398 310.374 264.137 310.329 263.832 310.294L263.598 310.269C263.109 310.213 262.686 310.122 262.327 309.995C261.969 309.869 261.684 309.682 261.474 309.436C261.264 309.19 261.137 308.855 261.092 308.431C261.047 308.006 261.11 307.633 261.281 307.31C261.451 306.987 261.712 306.725 262.063 306.524C262.414 306.323 262.838 306.196 263.335 306.144C263.832 306.091 264.284 306.129 264.69 306.258C265.095 306.386 265.427 306.606 265.684 306.917C265.941 307.229 266.096 307.637 266.149 308.14L266.181 308.439L264.888 308.575L264.856 308.276C264.829 308.011 264.755 307.803 264.635 307.651C264.515 307.499 264.355 307.396 264.155 307.34C263.954 307.283 263.722 307.269 263.456 307.297C263.059 307.339 262.773 307.445 262.6 307.614C262.427 307.783 262.354 307.996 262.381 308.255C262.399 308.427 262.459 308.569 262.561 308.678C262.663 308.788 262.808 308.874 262.995 308.934C263.182 308.995 263.419 309.041 263.703 309.071L263.937 309.097C264.446 309.151 264.893 309.241 265.278 309.368C265.663 309.495 265.973 309.684 266.207 309.934C266.441 310.184 266.581 310.522 266.625 310.946C266.67 311.37 266.601 311.755 266.42 312.099C266.238 312.443 265.959 312.727 265.584 312.951C265.209 313.175 264.753 313.315 264.216 313.371ZM269.701 312.654L269.094 306.886L267.066 307.099L266.94 305.906L272.311 305.341L272.436 306.535L270.407 306.748L271.013 312.516L269.701 312.654ZM274.435 312.156L273.703 305.195L276.726 304.877C277.164 304.831 277.553 304.867 277.894 304.986C278.235 305.104 278.509 305.293 278.718 305.553C278.926 305.812 279.05 306.131 279.09 306.509L279.102 306.628C279.146 307.046 279.082 307.394 278.911 307.674C278.739 307.953 278.513 308.168 278.234 308.318L278.253 308.497C278.52 308.483 278.735 308.552 278.898 308.706C279.062 308.86 279.158 309.076 279.188 309.354L279.427 311.632L278.114 311.77L277.895 309.681C277.878 309.522 277.823 309.397 277.73 309.306C277.636 309.216 277.494 309.18 277.301 309.201L275.471 309.393L275.747 312.018L274.435 312.156ZM275.346 308.199L276.917 308.034C277.229 308.002 277.464 307.891 277.622 307.704C277.78 307.516 277.844 307.283 277.815 307.005L277.804 306.905C277.775 306.627 277.665 306.412 277.475 306.261C277.285 306.11 277.031 306.052 276.712 306.085L275.141 306.25L275.346 308.199ZM281.217 311.444L280.485 304.482L284.961 304.011L285.086 305.205L281.924 305.537L282.098 307.198L284.982 306.895L285.108 308.088L282.224 308.392L282.405 310.112L285.627 309.773L285.752 310.967L281.217 311.444ZM286.747 310.862L287.845 303.708L290.132 303.468L292.694 310.237L291.341 310.379L290.803 308.888L288.316 309.149L288.099 310.72L286.747 310.862ZM288.497 307.903L290.367 307.707L289.165 304.404L288.986 304.423L288.497 307.903ZM294.027 310.097L293.295 303.136L294.608 302.998L294.898 305.762L295.077 305.744L297.044 302.741L298.725 302.565L296.182 306.301L299.556 309.516L297.826 309.698L295.222 307.116L295.043 307.135L295.339 309.959L294.027 310.097Z" fill="#94A3B8"/>
<path d="M264.624 329.276L264.586 328.914C264.548 328.552 264.543 328.24 264.572 327.979C264.601 327.718 264.691 327.415 264.843 327.071L267.507 320.949L267.484 320.726L262.304 321.27L262.137 319.683L269.155 318.945L269.377 321.062L266.573 327.593C266.474 327.819 266.411 328.018 266.382 328.19C266.353 328.362 266.351 328.569 266.377 328.81L266.406 329.088L264.624 329.276ZM274.69 328.218L274.521 326.603L275.802 326.468L275.117 319.952L273.836 320.086L273.666 318.471L277.676 318.05C278.985 317.912 280.015 318.14 280.767 318.731C281.519 319.323 281.964 320.274 282.101 321.583L282.295 323.421C282.432 324.729 282.195 325.751 281.582 326.487C280.97 327.222 280.009 327.659 278.7 327.796L274.69 328.218ZM277.634 326.219L278.553 326.122C279.295 326.044 279.818 325.792 280.12 325.366C280.423 324.941 280.537 324.375 280.463 323.669L280.258 321.72C280.183 321.005 279.953 320.473 279.569 320.124C279.185 319.775 278.622 319.64 277.879 319.718L276.96 319.814L277.634 326.219ZM286.462 327.177C285.97 327.229 285.52 327.19 285.112 327.059C284.704 326.928 284.369 326.71 284.107 326.404C283.845 326.099 283.689 325.709 283.64 325.236C283.59 324.762 283.662 324.354 283.856 324.01C284.049 323.665 284.34 323.391 284.726 323.186C285.113 322.981 285.566 322.851 286.086 322.797L287.98 322.598L287.939 322.208C287.905 321.883 287.774 321.627 287.548 321.439C287.322 321.252 286.986 321.182 286.541 321.229C286.104 321.275 285.79 321.408 285.598 321.63C285.405 321.852 285.293 322.125 285.261 322.447L283.589 322.074C283.663 321.709 283.808 321.368 284.023 321.05C284.239 320.732 284.543 320.46 284.937 320.236C285.331 320.011 285.825 319.868 286.419 319.806C287.329 319.71 288.072 319.862 288.649 320.261C289.226 320.66 289.56 321.291 289.651 322.155L289.921 324.73C289.951 325.009 290.095 325.135 290.355 325.107L290.912 325.049L291.064 326.497L289.895 326.62C289.551 326.656 289.259 326.602 289.019 326.458C288.779 326.315 288.644 326.104 288.615 325.825L288.613 325.811L288.349 325.839C288.323 325.954 288.255 326.109 288.144 326.304C288.033 326.499 287.846 326.68 287.582 326.849C287.318 327.017 286.945 327.127 286.462 327.177ZM286.619 325.725C287.111 325.673 287.498 325.494 287.78 325.188C288.063 324.881 288.18 324.501 288.132 324.046L288.117 323.907L286.349 324.092C286.024 324.127 285.776 324.223 285.605 324.382C285.434 324.54 285.362 324.745 285.388 324.996C285.415 325.246 285.533 325.44 285.745 325.578C285.956 325.715 286.248 325.764 286.619 325.725ZM293.195 329.088L293.034 327.557L296.793 327.162C297.053 327.134 297.168 326.981 297.139 326.703L296.956 324.962L296.705 324.989C296.648 325.154 296.548 325.324 296.407 325.499C296.266 325.673 296.066 325.826 295.808 325.956C295.549 326.086 295.211 326.173 294.793 326.217C294.255 326.274 293.771 326.2 293.341 325.997C292.912 325.793 292.563 325.485 292.294 325.072C292.025 324.659 291.861 324.17 291.802 323.604L291.369 319.482L293.123 319.298L293.542 323.28C293.596 323.8 293.765 324.176 294.047 324.409C294.33 324.643 294.708 324.734 295.181 324.684C295.72 324.628 296.119 324.405 296.378 324.017C296.638 323.628 296.734 323.114 296.666 322.473L296.298 318.964L298.052 318.78L298.906 326.911C298.956 327.385 298.857 327.777 298.608 328.09C298.359 328.402 298.003 328.583 297.539 328.632L293.195 329.088ZM303.616 325.375C302.715 325.469 301.957 325.352 301.34 325.022C300.724 324.693 300.317 324.173 300.121 323.461L301.692 322.874C301.791 323.192 301.927 323.436 302.099 323.605C302.272 323.775 302.476 323.887 302.712 323.942C302.948 323.997 303.2 324.011 303.469 323.982C303.878 323.939 304.172 323.836 304.352 323.671C304.531 323.507 304.61 323.318 304.588 323.105C304.565 322.891 304.455 322.736 304.257 322.64C304.059 322.543 303.752 322.479 303.336 322.448L302.939 322.419C302.447 322.377 301.992 322.296 301.576 322.175C301.16 322.055 300.816 321.863 300.544 321.601C300.273 321.339 300.113 320.98 300.065 320.525C299.993 319.838 300.188 319.285 300.651 318.866C301.114 318.446 301.754 318.194 302.57 318.108C303.341 318.027 303.999 318.131 304.546 318.421C305.093 318.711 305.474 319.126 305.69 319.666L304.114 320.339C304.003 319.994 303.825 319.759 303.582 319.635C303.339 319.51 303.051 319.465 302.717 319.5C302.383 319.535 302.133 319.62 301.969 319.755C301.805 319.889 301.734 320.059 301.755 320.263C301.779 320.486 301.889 320.641 302.086 320.728C302.282 320.815 302.542 320.87 302.863 320.893L303.26 320.921C303.79 320.96 304.274 321.033 304.712 321.142C305.151 321.251 305.508 321.434 305.783 321.691C306.059 321.948 306.222 322.318 306.273 322.801C306.349 323.525 306.146 324.112 305.663 324.561C305.18 325.011 304.497 325.282 303.616 325.375Z" fill="white"/>
<defs>
<filter id="filter0_d_76_398" x="-7" y="0" width="388" height="372" filterUnits="userSpaceOnUse" color-interpolation-filters="sRGB">
<feFlood flood-opacity="0" result="BackgroundImageFix"/>
<feColorMatrix in="SourceAlpha" type="matrix" values="0 0 0 0 0 0 0 0 0 0 0 0 0 0 0 0 0 0 127 0" result="hardAlpha"/>
<feOffset/>
<feGaussianBlur stdDeviation="25"/>
<feComposite in2="hardAlpha" operator="out"/>
<feColorMatrix type="matrix" values="0 0 0 0 0.917647 0 0 0 0 0.701961 0 0 0 0 0.0313726 0 0 0 0.4 0"/>
<feBlend mode="normal" in2="BackgroundImageFix" result="effect1_dropShadow_76_398"/>
<feBlend mode="normal" in="SourceGraphic" in2="effect1_dropShadow_76_398" result="shape"/>
</filter>
<filter id="filter1_dd_76_398" x="147" y="149" width="96" height="97" filterUnits="userSpaceOnUse" color-interpolation-filters="sRGB">
<feFlood flood-opacity="0" result="BackgroundImageFix"/>
<feColorMatrix in="SourceAlpha" type="matrix" values="0 0 0 0 0 0 0 0 0 0 0 0 0 0 0 0 0 0 127 0" result="hardAlpha"/>
<feOffset dy="4"/>
<feGaussianBlur stdDeviation="1.5"/>
<feComposite in2="hardAlpha" operator="out"/>
<feColorMatrix type="matrix" values="0 0 0 0 0 0 0 0 0 0 0 0 0 0 0 0 0 0 0.07 0"/>
<feBlend mode="normal" in2="BackgroundImageFix" result="effect1_dropShadow_76_398"/>
<feColorMatrix in="SourceAlpha" type="matrix" values="0 0 0 0 0 0 0 0 0 0 0 0 0 0 0 0 0 0 127 0" result="hardAlpha"/>
<feOffset dy="2"/>
<feGaussianBlur stdDeviation="1"/>
<feComposite in2="hardAlpha" operator="out"/>
<feColorMatrix type="matrix" values="0 0 0 0 0 0 0 0 0 0 0 0 0 0 0 0 0 0 0.06 0"/>
<feBlend mode="normal" in2="effect1_dropShadow_76_398" result="effect2_dropShadow_76_398"/>
<feBlend mode="normal" in="SourceGraphic" in2="effect2_dropShadow_76_398" result="shape"/>
</filter>
<filter id="filter2_dd_76_398" x="178.988" y="282.954" width="165.516" height="108.112" filterUnits="userSpaceOnUse" color-interpolation-filters="sRGB">
<feFlood flood-opacity="0" result="BackgroundImageFix"/>
<feColorMatrix in="SourceAlpha" type="matrix" values="0 0 0 0 0 0 0 0 0 0 0 0 0 0 0 0 0 0 127 0" result="hardAlpha"/>
<feMorphology radius="6" operator="erode" in="SourceAlpha" result="effect1_dropShadow_76_398"/>
<feOffset dy="8"/>
<feGaussianBlur stdDeviation="5"/>
<feComposite in2="hardAlpha" operator="out"/>
<feColorMatrix type="matrix" values="0 0 0 0 0 0 0 0 0 0 0 0 0 0 0 0 0 0 0.1 0"/>
<feBlend mode="normal" in2="BackgroundImageFix" result="effect1_dropShadow_76_398"/>
<feColorMatrix in="SourceAlpha" type="matrix" values="0 0 0 0 0 0 0 0 0 0 0 0 0 0 0 0 0 0 127 0" result="hardAlpha"/>
<feMorphology radius="5" operator="erode" in="SourceAlpha" result="effect2_dropShadow_76_398"/>
<feOffset dy="20"/>
<feGaussianBlur stdDeviation="12.5"/>
<feComposite in2="hardAlpha" operator="out"/>
<feColorMatrix type="matrix" values="0 0 0 0 0 0 0 0 0 0 0 0 0 0 0 0 0 0 0.1 0"/>
<feBlend mode="normal" in2="effect1_dropShadow_76_398" result="effect2_dropShadow_76_398"/>
<feBlend mode="normal" in="SourceGraphic" in2="effect2_dropShadow_76_398" result="shape"/>
</filter>
<filter id="filter3_i_76_398" x="207.692" y="298.4" width="43.9619" height="45.961" filterUnits="userSpaceOnUse" color-interpolation-filters="sRGB">
<feFlood flood-opacity="0" result="BackgroundImageFix"/>
<feBlend mode="normal" in="SourceGraphic" in2="BackgroundImageFix" result="shape"/>
<feColorMatrix in="SourceAlpha" type="matrix" values="0 0 0 0 0 0 0 0 0 0 0 0 0 0 0 0 0 0 127 0" result="hardAlpha"/>
<feOffset dy="2"/>
<feGaussianBlur stdDeviation="2"/>
<feComposite in2="hardAlpha" operator="arithmetic" k2="-1" k3="1"/>
<feColorMatrix type="matrix" values="0 0 0 0 0 0 0 0 0 0 0 0 0 0 0 0 0 0 0.05 0"/>
<feBlend mode="normal" in2="shape" result="effect1_innerShadow_76_398"/>
</filter>
<linearGradient id="paint0_linear_76_398" x1="67" y1="66" x2="323" y2="322" gradientUnits="userSpaceOnUse">
<stop stop-color="#FDE047"/>
<stop offset="0.5" stop-color="#EAB308"/>
<stop offset="1" stop-color="#CA8A04"/>
</linearGradient>
</defs>
</svg>
