<svg width="49" height="50" viewBox="0 0 49 50" fill="none" xmlns="http://www.w3.org/2000/svg">
<path d="M8.85819 47.9342L9.13731 42.6082L19.7894 43.1665L20.222 34.9111C18.0728 34.3089 16.1793 33.2862 14.5415 31.8429C12.9036 30.3997 11.7388 28.6363 11.0469 26.5528C7.73904 25.9789 5.03015 24.3794 2.9202 21.7542C0.810253 19.1291 -0.156331 16.13 0.0204484 12.7568L0.160011 10.0938C0.236771 8.62914 0.823988 7.40263 1.92166 6.41428C3.01934 5.42593 4.30051 4.97013 5.76516 5.04689L11.0912 5.32602L11.3703 -7.37434e-06L38.0004 1.39562L37.7213 6.72165L43.0474 7.00077C44.512 7.07753 45.7385 7.66475 46.7269 8.76242C47.7152 9.8601 48.171 11.1413 48.0943 12.6059L47.9547 15.2689C47.7779 18.6421 46.5031 21.5238 44.1303 23.914C41.7575 26.3042 38.8963 27.6118 35.5466 27.8368C34.6407 29.8366 33.2979 31.4685 31.5182 32.7327C29.7385 33.9968 27.7484 34.816 25.548 35.1902L25.1154 43.4456L35.7674 44.0038L35.4883 49.3299L8.85819 47.9342ZM10.2817 20.7715L10.8121 10.652L5.48604 10.3729L5.34648 13.0359C5.25809 14.7225 5.66664 16.2682 6.57213 17.6731C7.47763 19.078 8.71416 20.1108 10.2817 20.7715ZM23.1502 29.991C25.3694 30.1073 27.2964 29.4294 28.9312 27.9574C30.566 26.4854 31.4416 24.6398 31.5579 22.4206L32.3953 6.44252L16.4172 5.60514L15.5798 21.5832C15.4635 23.8024 16.1414 25.7294 17.6134 27.3642C19.0854 28.9991 20.931 29.8747 23.1502 29.991ZM36.9119 22.1671C38.5399 21.6739 39.8776 20.776 40.925 19.4735C41.9724 18.1709 42.5403 16.6764 42.6287 14.9898L42.7682 12.3268L37.4422 12.0477L36.9119 22.1671Z" fill="white"/>
</svg>
