<svg width="51" height="54" viewBox="0 0 51 54" fill="none" xmlns="http://www.w3.org/2000/svg">
<path d="M8 53.3333V41.8667C5.46667 39.5556 3.5 36.8556 2.1 33.7667C0.7 30.6778 0 27.4222 0 24C0 17.3333 2.33333 11.6667 7 7C11.6667 2.33333 17.3333 0 24 0C29.5556 0 34.4778 1.63333 38.7667 4.9C43.0556 8.16667 45.8444 12.4222 47.1333 17.6667L50.6 31.3333C50.8222 32.1778 50.6667 32.9444 50.1333 33.6333C49.6 34.3222 48.8889 34.6667 48 34.6667H42.6667V42.6667C42.6667 44.1333 42.1444 45.3889 41.1 46.4333C40.0556 47.4778 38.8 48 37.3333 48H32V53.3333H26.6667V42.6667H37.3333V29.3333H44.5333L42 19C40.9778 14.9556 38.8 11.6667 35.4667 9.13333C32.1333 6.6 28.3111 5.33333 24 5.33333C18.8444 5.33333 14.4444 7.13333 10.8 10.7333C7.15556 14.3333 5.33333 18.7111 5.33333 23.8667C5.33333 26.5333 5.87778 29.0667 6.96667 31.4667C8.05556 33.8667 9.6 36 11.6 37.8667L13.3333 39.4667V53.3333H8ZM21.3333 34.6667H26.6667L27.0667 31.3333C27.4222 31.2 27.7444 31.0444 28.0333 30.8667C28.3222 30.6889 28.5778 30.4889 28.8 30.2667L31.8667 31.6L34.5333 27.0667L31.8667 25.0667C31.9556 24.7111 32 24.3556 32 24C32 23.6444 31.9556 23.2889 31.8667 22.9333L34.5333 20.9333L31.8667 16.4L28.8 17.7333C28.5778 17.5111 28.3222 17.3111 28.0333 17.1333C27.7444 16.9556 27.4222 16.8 27.0667 16.6667L26.6667 13.3333H21.3333L20.9333 16.6667C20.5778 16.8 20.2556 16.9556 19.9667 17.1333C19.6778 17.3111 19.4222 17.5111 19.2 17.7333L16.1333 16.4L13.4667 20.9333L16.1333 22.9333C16.0444 23.2889 16 23.6444 16 24C16 24.3556 16.0444 24.7111 16.1333 25.0667L13.4667 27.0667L16.1333 31.6L19.2 30.2667C19.4222 30.4889 19.6778 30.6889 19.9667 30.8667C20.2556 31.0444 20.5778 31.2 20.9333 31.3333L21.3333 34.6667ZM24 28C22.8889 28 21.9444 27.6111 21.1667 26.8333C20.3889 26.0556 20 25.1111 20 24C20 22.8889 20.3889 21.9444 21.1667 21.1667C21.9444 20.3889 22.8889 20 24 20C25.1111 20 26.0556 20.3889 26.8333 21.1667C27.6111 21.9444 28 22.8889 28 24C28 25.1111 27.6111 26.0556 26.8333 26.8333C26.0556 27.6111 25.1111 28 24 28Z" fill="#2559F4"/>
</svg>
